<?xml version="1.0" standalone="no"?>
<!DOCTYPE svg PUBLIC "-//W3C//DTD SVG 20010904//EN"
 "http://www.w3.org/TR/2001/REC-SVG-20010904/DTD/svg10.dtd">
<svg version="1.0" xmlns="http://www.w3.org/2000/svg"
 width="1195.000000pt" height="1195.000000pt" viewBox="0 0 1195.000000 1195.000000"
 preserveAspectRatio="xMidYMid meet">
<metadata>
Created by potrace 1.14, written by Peter Selinger 2001-2017
</metadata>
<g transform="translate(0.000000,1195.000000) scale(0.100000,-0.100000)"
fill="#000000" stroke="none">
<path d="M4988 10818 c-21 -56 -86 -211 -247 -595 -72 -172 -131 -315 -131
-317 0 -3 -11 -29 -24 -58 -14 -29 -97 -228 -186 -443 -89 -214 -171 -410
-182 -434 -10 -24 -28 -67 -39 -95 -11 -28 -26 -65 -34 -81 -17 -36 -37 -86
-41 -100 -2 -8 -55 -134 -84 -200 -13 -28 -156 -371 -230 -550 -34 -82 -68
-163 -75 -180 -7 -16 -34 -82 -60 -145 -27 -63 -68 -161 -91 -217 -24 -56 -59
-139 -78 -185 -18 -46 -86 -209 -151 -363 -64 -154 -202 -485 -306 -735 -104
-250 -194 -464 -199 -475 -10 -21 -119 -282 -497 -1190 -124 -297 -231 -553
-238 -570 -7 -16 -64 -151 -125 -300 -62 -148 -118 -283 -125 -300 -8 -16 -30
-70 -50 -120 -20 -49 -42 -103 -50 -120 -7 -16 -25 -59 -40 -95 -15 -36 -33
-78 -40 -95 -7 -16 -30 -70 -50 -120 -20 -49 -43 -103 -50 -120 -7 -16 -47
-113 -89 -215 -42 -102 -84 -201 -92 -220 -9 -19 -37 -84 -61 -145 -25 -60
-51 -123 -58 -140 -7 -16 -37 -86 -65 -155 -28 -69 -58 -138 -65 -155 -14 -32
-125 -297 -125 -299 0 -3 2091 2 2094 5 6 6 347 858 348 869 0 3 5 14 11 25 6
11 12 25 13 30 2 6 57 145 124 310 67 165 127 316 134 335 8 19 28 71 46 115
17 44 50 125 72 180 22 55 48 120 58 145 11 25 26 61 34 81 l14 37 1970 0
1970 0 108 -271 c59 -150 115 -290 124 -312 10 -22 30 -71 45 -110 15 -38 34
-83 41 -100 7 -16 128 -320 269 -675 142 -355 261 -649 266 -654 8 -9 2135
-13 2143 -5 2 2 -7 27 -19 54 -13 28 -44 102 -70 165 -56 137 -91 219 -117
279 -11 24 -28 67 -39 95 -19 48 -106 256 -134 321 -7 17 -69 165 -138 330
-69 165 -234 561 -367 880 -134 319 -264 632 -290 695 -27 63 -67 160 -90 215
-23 55 -57 136 -75 180 -66 160 -267 641 -280 670 -7 17 -74 176 -148 355
-239 575 -346 832 -407 975 -33 77 -123 293 -200 480 -77 187 -147 354 -155
370 -8 17 -35 82 -60 145 -26 63 -53 129 -60 145 -8 17 -55 129 -105 250 -50
121 -97 234 -105 250 -7 17 -63 150 -124 296 -128 309 -134 322 -136 329 -1 3
-7 16 -12 30 -11 26 -511 1221 -533 1275 -7 17 -19 44 -26 61 -8 18 -55 130
-104 250 -50 121 -98 235 -106 254 -9 19 -32 76 -52 125 l-37 90 -950 3 -951
2 -16 -42z m952 -2500 c0 -5 7 -26 16 -46 9 -21 20 -46 25 -57 7 -18 391 -976
639 -1595 56 -140 108 -268 115 -285 7 -16 39 -95 70 -175 31 -80 61 -153 66
-162 4 -9 25 -59 44 -110 36 -92 117 -295 201 -501 24 -59 44 -111 44 -115 0
-4 -555 -7 -1234 -7 l-1233 0 24 64 c13 35 30 76 39 92 8 16 15 32 15 36 2 13
265 676 289 728 5 11 23 56 40 100 17 44 35 89 40 100 5 11 35 83 66 160 245
615 438 1095 449 1120 7 17 45 111 85 210 39 99 77 194 84 210 17 40 41 99 41
105 1 3 8 21 17 40 8 19 21 52 28 72 12 33 30 43 30 16z"/>
</g>
</svg>
